# xmcd CD database file
#
# Track frame offsets:
#	183
#	19250
#	47705
#	63860
#	81555
#	99113
#	118568
#	133895
#	152288
#	171503
#	182580
#	198293
#	217705
#
# Disc length: 3125 seconds
#
# Revision: 2
# Processed by: cddbd v1.5PL3 Copyright (c) Steve Scherf et al.
# Submitted via: CDex 1.50beta10
#
DISCID=a60c330d
DTITLE=John Lee Hooker -  Shake It Baby - Charly Blues Masterworks Vol. 45
DYEAR=1995
DGENRE=Blues
TTITLE0=Shake It Baby
TTITLE1=the Right Time
TTITLE2=Mai Lee
TTITLE3=I'm Losing You
TTITLE4=Little Girl go Back To School
TTITLE5=Little Dreamer
TTITLE6=Don't Be Messing Around With My Bread
TTITLE7=Bad Luck And Trouble
TTITLE8=Waterfront
TTITLE9=No One Pleases Me But You
TTITLE10=It's Raining Here
TTITLE11=It's A Crazy Mixed Up World
TTITLE12=Seven Days And Seven Nights
EXTD=YEAR: 1995
EXTT0=
EXTT1=
EXTT2=
EXTT3=
EXTT4=
EXTT5=
EXTT6=
EXTT7=
EXTT8=
EXTT9=
EXTT10=
EXTT11=
EXTT12=
PLAYORDER=
